<svg aria-hidden="true" style="position: absolute; width: 0; height: 0; overflow: hidden;" version="1.1" xmlns="http://www.w3.org/2000/svg" xmlns:xlink="http://www.w3.org/1999/xlink">
<defs>
<symbol id="icon-close" viewBox="0 0 32 32">
<path d="M18.828 16l12.586-12.585c0.781-0.781 0.781-2.048 0-2.829s-2.048-0.781-2.829 0v0l-12.585 12.586-12.585-12.586c-0.781-0.781-2.048-0.781-2.829 0s-0.781 2.048 0 2.829l12.586 12.585-12.586 12.585c-0.781 0.781-0.781 2.048 0 2.829s2.048 0.781 2.829 0l12.585-12.586 12.585 12.586c0.781 0.781 2.048 0.781 2.829 0s0.781-2.048 0-2.829l-12.586-12.585z"></path>
</symbol>
<symbol id="icon-instagram" viewBox="0 0 32 32">
<path d="M16 2.883c4.272 0 4.779 0.016 6.465 0.093 1.744 0.080 3.54 0.477 4.811 1.748 1.283 1.283 1.668 3.061 1.748 4.811 0.077 1.687 0.093 2.193 0.093 6.465s-0.016 4.779-0.093 6.465c-0.079 1.735-0.485 3.548-1.748 4.811-1.283 1.283-3.060 1.668-4.811 1.748-1.687 0.077-2.193 0.093-6.465 0.093s-4.779-0.016-6.465-0.093c-1.721-0.079-3.559-0.495-4.811-1.748-1.276-1.276-1.668-3.072-1.748-4.811-0.077-1.687-0.093-2.193-0.093-6.465s0.016-4.779 0.093-6.465c0.079-1.728 0.489-3.552 1.748-4.811 1.28-1.28 3.065-1.668 4.811-1.748 1.687-0.077 2.193-0.093 6.465-0.093zM16 0c-4.345 0-4.891 0.019-6.597 0.096-2.473 0.113-4.929 0.801-6.717 2.589-1.795 1.795-2.476 4.245-2.589 6.717-0.077 1.707-0.096 2.252-0.096 6.597s0.019 4.891 0.096 6.597c0.113 2.471 0.804 4.933 2.589 6.717 1.793 1.793 4.248 2.476 6.717 2.589 1.707 0.077 2.252 0.096 6.597 0.096s4.891-0.019 6.597-0.096c2.472-0.113 4.931-0.803 6.717-2.589 1.796-1.796 2.476-4.245 2.589-6.717 0.077-1.707 0.096-2.252 0.096-6.597s-0.019-4.891-0.096-6.597c-0.113-2.473-0.803-4.931-2.589-6.717-1.791-1.791-4.252-2.477-6.717-2.589-1.707-0.077-2.252-0.096-6.597-0.096z"></path>
<path d="M16 7.784c-4.537 0-8.216 3.679-8.216 8.216s3.679 8.216 8.216 8.216 8.216-3.679 8.216-8.216c0-4.537-3.679-8.216-8.216-8.216zM16 21.333c-2.945 0-5.333-2.388-5.333-5.333s2.388-5.333 5.333-5.333 5.333 2.388 5.333 5.333-2.388 5.333-5.333 5.333z"></path>
<path d="M26.461 7.459c0 1.060-0.86 1.92-1.92 1.92s-1.92-0.86-1.92-1.92c0-1.060 0.86-1.92 1.92-1.92s1.92 0.86 1.92 1.92z"></path>
</symbol>
<symbol id="icon-location" viewBox="0 0 32 32">
<path d="M16 8c-2.946 0-5.333 2.388-5.333 5.333s2.388 5.333 5.333 5.333c2.946 0 5.333-2.388 5.333-5.333v0c0-2.946-2.388-5.333-5.333-5.333v0zM16 16c-1.473 0-2.667-1.194-2.667-2.667s1.194-2.667 2.667-2.667c1.473 0 2.667 1.194 2.667 2.667v0c0 1.473-1.194 2.667-2.667 2.667v0z"></path>
<path d="M16 32c-0.011 0-0.023 0-0.036 0-2.345 0-4.421-1.148-5.698-2.913l-0.014-0.021c-5.081-7.009-7.659-12.279-7.659-15.663 0-7.404 6.002-13.407 13.407-13.407s13.407 6.002 13.407 13.407v0c0 3.384-2.577 8.653-7.659 15.663-1.291 1.785-3.367 2.933-5.712 2.933-0.013 0-0.025-0-0.038-0h0.002zM16 2.908c-5.796 0.007-10.492 4.703-10.499 10.498v0.001c0 2.68 2.524 7.636 7.105 13.955 0.771 1.053 2.003 1.73 3.393 1.73s2.622-0.676 3.385-1.718l0.008-0.012c4.581-6.319 7.105-11.275 7.105-13.955-0.007-5.795-4.703-10.492-10.498-10.499h-0.001z"></path>
</symbol>
<symbol id="icon-menu-burger" viewBox="0 0 32 32">
<path d="M30 14h-28c-1.105 0-2 0.895-2 2s0.895 2 2 2h28c1.105 0 2-0.895 2-2s-0.895-2-2-2z"></path>
<path d="M2 8.667h28c1.105 0 2-0.895 2-2s-0.895-2-2-2h-28c-1.105 0-2 0.895-2 2s0.895 2 2 2z"></path>
<path d="M30 23.333h-28c-1.105 0-2 0.895-2 2s0.895 2 2 2h28c1.105 0 2-0.895 2-2s-0.895-2-2-2z"></path>
</symbol>
<symbol id="icon-phone-call" viewBox="0 0 32 32">
<path d="M17.333 1.333c0-0.736 0.597-1.333 1.333-1.333v0c7.36 0.008 13.325 5.973 13.333 13.333v0.001c0 0.736-0.597 1.333-1.333 1.333s-1.333-0.597-1.333-1.333v0c-0.007-5.888-4.778-10.66-10.666-10.667h-0.001c-0.736 0-1.333-0.597-1.333-1.333v0zM18.667 8c2.946 0 5.333 2.388 5.333 5.333v0c0 0.736 0.597 1.333 1.333 1.333s1.333-0.597 1.333-1.333v0c-0.005-4.416-3.584-7.995-8-8h-0c-0.736 0-1.333 0.597-1.333 1.333s0.597 1.333 1.333 1.333v0zM30.791 22.319c0.746 0.748 1.207 1.779 1.207 2.919s-0.461 2.171-1.207 2.919l0-0-1.213 1.399c-10.92 10.455-37.493-16.112-27.2-27.067l1.533-1.333c0.738-0.716 1.747-1.157 2.858-1.157 1.138 0 2.168 0.463 2.912 1.21l0 0c0.041 0.041 2.512 3.251 2.512 3.251 0.705 0.74 1.139 1.744 1.139 2.85 0 1.11-0.438 2.118-1.15 2.861l0.001-0.001-1.544 1.941c1.763 4.208 5.038 7.489 9.129 9.218l0.112 0.042 1.953-1.553c0.741-0.71 1.749-1.148 2.858-1.148 1.106 0 2.11 0.434 2.851 1.141l-0.002-0.002s3.208 2.469 3.249 2.511zM28.956 24.257s-3.191-2.455-3.232-2.496c-0.265-0.263-0.63-0.425-1.033-0.425s-0.768 0.162-1.033 0.425l0-0c-0.036 0.037-2.725 2.18-2.725 2.18-0.226 0.181-0.515 0.29-0.83 0.29-0.171 0-0.334-0.032-0.484-0.091l0.009 0.003c-5.453-2.070-9.683-6.295-11.715-11.607l-0.046-0.137c-0.062-0.148-0.098-0.321-0.098-0.502 0-0.316 0.11-0.606 0.293-0.834l-0.002 0.003s2.143-2.691 2.179-2.725c0.263-0.265 0.425-0.63 0.425-1.033s-0.162-0.768-0.425-1.033l0 0c-0.041-0.040-2.496-3.233-2.496-3.233-0.258-0.232-0.602-0.375-0.979-0.375-0.404 0-0.769 0.163-1.034 0.427l0-0-1.533 1.333c-7.523 9.045 15.505 30.796 23.432 23.305l1.215-1.4c0.295-0.274 0.479-0.664 0.479-1.097 0-0.376-0.139-0.719-0.367-0.981l0.002 0.002z"></path>
</symbol>
</defs>
</svg>
